<?xml version="1.0" standalone="no"?>
<!DOCTYPE svg PUBLIC "-//W3C//DTD SVG 20010904//EN"
 "http://www.w3.org/TR/2001/REC-SVG-20010904/DTD/svg10.dtd">
<svg version="1.0" xmlns="http://www.w3.org/2000/svg"
 width="1152.000000pt" height="1152.000000pt" viewBox="0 0 1152.000000 1152.000000"
 preserveAspectRatio="xMidYMid meet">
<metadata>
Created by potrace 1.14, written by Peter Selinger 2001-2017
</metadata>
<g transform="translate(0.000000,1152.000000) scale(0.100000,-0.100000)"
fill="#000000" stroke="none">
<path d="M2534 11416 c-49 -51 -102 -108 -119 -127 -48 -55 -145 -188 -145
-198 0 -5 -4 -11 -8 -13 -23 -9 -134 -267 -146 -341 -3 -18 -9 -45 -13 -62
-14 -61 -6 -335 10 -335 5 0 6 -4 3 -9 -10 -15 63 -218 111 -309 56 -106 183
-296 256 -382 6 -8 33 -44 59 -80 26 -36 53 -72 60 -80 8 -8 27 -35 43 -60 17
-25 33 -47 36 -50 24 -19 94 -200 77 -200 -7 0 -7 -4 0 -12 5 -7 9 -27 7 -44
-4 -47 -28 -134 -37 -134 -4 0 -8 -9 -8 -20 0 -11 -4 -20 -10 -20 -5 0 -10 -7
-10 -15 0 -8 -4 -15 -10 -15 -5 0 -10 -7 -10 -15 0 -8 -4 -15 -10 -15 -5 0
-10 -4 -10 -10 0 -5 -8 -18 -17 -28 -24 -25 -85 -94 -101 -114 -10 -13 10 -38
140 -170 84 -86 186 -190 226 -231 40 -42 78 -77 84 -79 13 -5 41 21 103 96
22 27 49 58 60 71 11 12 27 32 35 45 8 12 23 33 33 45 9 13 17 28 17 33 0 6 4
12 9 14 21 8 131 239 146 308 29 129 36 177 37 240 0 78 -10 198 -18 212 -3 5
-7 18 -10 31 -10 53 -13 66 -38 131 -25 66 -75 171 -107 225 -28 48 -158 241
-169 251 -3 3 -28 34 -55 70 -27 36 -53 67 -57 68 -4 2 -8 10 -8 17 0 8 -6 18
-12 22 -7 4 -17 15 -23 25 -5 9 -30 45 -55 80 -45 63 -100 165 -109 203 -13
54 -5 172 14 215 40 94 121 196 251 322 l42 39 -27 28 c-14 15 -55 61 -91 102
-36 40 -81 91 -100 111 -19 21 -52 57 -73 81 -20 25 -60 69 -87 98 -28 30 -50
57 -50 60 0 4 -6 9 -13 12 -8 3 -51 -33 -103 -87z"/>
<path d="M4214 11427 c-69 -69 -119 -126 -187 -207 -63 -75 -149 -222 -189
-320 -54 -133 -62 -170 -74 -310 -7 -97 -7 -85 0 -160 9 -82 31 -173 62 -255
4 -11 8 -22 9 -25 2 -6 22 -53 39 -90 31 -70 200 -334 240 -376 6 -6 18 -22
26 -34 8 -12 20 -28 26 -34 5 -6 37 -47 69 -91 33 -44 62 -82 65 -85 22 -22
103 -172 117 -218 18 -59 18 -170 0 -188 -4 -4 -7 -15 -7 -24 0 -32 -107 -182
-186 -263 l-31 -32 210 -212 c116 -116 213 -216 216 -220 3 -4 16 -16 27 -26
21 -18 22 -17 61 25 22 24 52 57 66 73 14 17 40 46 56 65 17 19 31 40 31 46 0
7 4 14 8 16 12 4 65 85 92 138 12 25 28 48 34 52 6 4 7 8 3 8 -5 0 -2 12 6 28
58 109 88 240 92 392 4 183 -36 343 -126 516 -23 43 -47 89 -53 101 -6 13 -14
23 -18 23 -5 0 -8 5 -8 10 0 6 -14 29 -30 53 -17 23 -38 53 -48 66 -9 14 -32
44 -49 68 -18 24 -33 47 -33 52 0 5 -4 11 -8 13 -5 2 -34 37 -65 78 -31 41
-60 80 -65 85 -27 32 -82 116 -82 125 0 5 -3 10 -8 10 -10 0 -47 83 -64 145
-14 48 -15 86 -5 151 5 32 58 143 79 165 7 8 25 31 40 51 16 20 64 73 109 118
l81 82 -24 26 c-12 14 -30 33 -38 42 -22 24 -141 158 -172 194 -14 17 -43 49
-62 71 -20 22 -36 44 -36 48 0 5 -4 5 -10 2 -5 -3 -10 -1 -10 5 0 5 -21 33
-47 60 l-48 50 -81 -83z"/>
<path d="M5895 11442 c-63 -61 -108 -111 -190 -207 -28 -32 -159 -232 -161
-243 -1 -6 -33 -80 -55 -127 -16 -34 -48 -159 -43 -167 3 -4 2 -8 -3 -8 -19 0
-19 -253 1 -345 14 -66 30 -122 39 -132 5 -7 7 -13 3 -13 -6 0 15 -48 65 -155
12 -27 38 -73 56 -102 18 -29 33 -55 33 -58 0 -3 5 -11 10 -18 6 -7 36 -48 68
-92 31 -44 60 -81 64 -83 4 -2 8 -10 8 -18 0 -8 3 -14 8 -14 4 0 18 -17 32
-38 14 -20 34 -47 45 -59 34 -36 115 -151 115 -162 0 -6 4 -11 8 -11 10 0 37
-50 34 -62 -1 -5 2 -8 7 -8 5 0 19 -26 32 -57 37 -90 33 -197 -9 -285 -18 -37
-38 -73 -45 -80 -7 -7 -24 -29 -39 -49 -14 -20 -47 -58 -72 -85 l-46 -49 55
-55 c29 -30 136 -138 236 -239 l181 -184 55 59 c31 32 67 75 82 94 14 19 32
39 38 43 7 4 13 14 13 22 0 7 4 15 9 17 24 9 166 266 176 320 2 10 7 23 10 28
3 5 8 18 10 27 3 10 9 36 15 58 35 140 30 328 -14 487 -41 148 -143 341 -281
528 -22 30 -43 57 -47 58 -5 2 -8 8 -8 14 0 5 -6 15 -12 22 -17 16 -49 58 -98
126 -22 30 -45 61 -50 67 -32 39 -93 148 -112 199 -20 58 -27 143 -15 196 8
36 52 125 85 168 37 50 67 83 150 166 l72 73 -32 38 c-18 21 -37 43 -43 49 -5
6 -39 44 -75 84 -36 41 -81 90 -100 111 -19 20 -60 66 -90 100 -30 35 -66 76
-80 92 l-25 28 -70 -69z"/>
<path d="M1434 7455 c-7 -16 2 -6257 8 -6295 18 -106 49 -225 77 -295 158
-388 449 -668 826 -794 86 -29 108 -34 184 -47 18 -3 43 -8 55 -11 34 -10
4244 -11 4326 -1 109 12 242 44 320 75 8 4 17 7 20 8 3 0 27 11 54 23 27 12
52 22 56 22 5 0 10 3 12 8 2 4 28 20 58 36 30 17 60 34 65 38 6 4 42 33 82 63
95 73 189 168 243 245 13 19 27 37 30 40 3 3 17 23 30 45 13 22 29 43 34 47 6
4 7 8 2 8 -5 0 -3 6 3 14 30 36 88 171 122 286 49 164 53 205 53 682 1 264 5
408 11 409 6 0 17 2 25 4 8 1 29 5 45 8 54 10 169 36 205 47 19 6 42 13 50 15
31 7 118 38 200 72 291 118 551 293 774 519 91 92 115 120 183 208 35 45 67
86 73 93 21 25 150 240 150 250 0 6 7 16 15 23 8 7 15 21 15 30 0 10 5 20 11
22 5 2 11 10 13 18 1 8 10 29 19 47 9 18 17 39 17 48 0 8 5 15 12 15 6 0 9 3
5 6 -3 4 3 24 14 45 11 22 17 39 13 39 -4 0 -2 6 4 12 9 12 30 74 52 153 26
94 61 244 63 270 2 17 5 35 8 40 3 6 4 20 3 33 0 12 1 22 5 22 3 0 7 24 9 53
6 118 10 1937 4 1938 -4 0 -452 2 -997 3 -544 2 -992 3 -995 4 -3 1 -5 309 -5
684 l0 683 -3329 0 c-2211 0 -3330 -3 -3332 -10z m6761 -2035 c11 4 25 3 32
-2 7 -6 19 -6 31 1 11 6 22 8 25 4 8 -7 237 -6 244 1 4 3 12 1 19 -5 9 -7 19
-7 33 0 13 7 22 8 26 1 4 -7 12 -7 24 0 10 5 21 7 24 4 7 -7 187 -8 194 0 3 3
12 1 19 -5 9 -7 19 -7 32 0 11 6 22 8 25 4 6 -5 128 -7 152 -3 6 1 15 2 20 1
25 -5 227 -2 233 3 3 3 11 1 18 -5 8 -7 19 -7 30 -1 9 5 25 7 36 4 19 -5 19
-20 15 -606 -2 -330 -7 -617 -10 -636 -4 -19 -9 -51 -12 -70 -3 -19 -10 -53
-16 -75 -6 -22 -13 -51 -16 -65 -17 -94 -134 -368 -194 -457 -16 -23 -29 -45
-29 -48 0 -11 -148 -198 -198 -250 -26 -27 -73 -71 -103 -98 -29 -26 -61 -53
-69 -60 -34 -31 -130 -97 -140 -97 -5 0 -10 -4 -10 -8 0 -5 -22 -19 -50 -32
-27 -13 -50 -27 -50 -32 0 -4 -5 -8 -10 -8 -6 0 -38 -13 -73 -29 -34 -16 -80
-36 -102 -44 -22 -8 -49 -19 -60 -23 -11 -4 -24 -8 -30 -9 -5 -1 -26 -6 -45
-13 -19 -6 -47 -13 -62 -16 -15 -3 -32 -7 -38 -11 -5 -3 -10 0 -11 7 -1 7 -2
613 -3 1346 -1 1043 2 1331 11 1328 7 -3 15 -1 18 4 3 5 15 6 28 1 12 -5 31
-5 42 -1z"/>
</g>
</svg>
